<svg width="14" height="14" viewBox="0 0 14 14" fill="none" xmlns="http://www.w3.org/2000/svg">
<path d="M6.99998 0.333252C10.68 0.333252 13.6666 3.31992 13.6666 6.99992C13.6666 10.6799 10.68 13.6666 6.99998 13.6666C3.31998 13.6666 0.333313 10.6799 0.333313 6.99992C0.333313 3.31992 3.31998 0.333252 6.99998 0.333252ZM6.99998 1.66659C4.05331 1.66659 1.66665 4.05325 1.66665 6.99992C1.66665 9.94659 4.05331 12.3333 6.99998 12.3333C9.94665 12.3333 12.3333 9.94659 12.3333 6.99992C12.3333 4.05325 9.94665 1.66659 6.99998 1.66659ZM6.99998 3.66659C8.21331 3.66659 9.27531 4.31525 9.85865 5.28525L8.71598 5.97125C8.53615 5.67141 8.28087 5.42396 7.97558 5.25355C7.67029 5.08314 7.32566 4.99575 6.97606 5.00007C6.62646 5.0044 6.2841 5.10029 5.98311 5.2782C5.68213 5.45611 5.43305 5.7098 5.26069 6.014C5.08834 6.3182 4.99874 6.66226 5.00083 7.01188C5.00293 7.3615 5.09663 7.70447 5.27261 8.00658C5.44859 8.30869 5.70069 8.55939 6.00378 8.73369C6.30687 8.90798 6.65035 8.99978 6.99998 8.99992C7.3454 9.00014 7.68499 8.91084 7.98561 8.74073C8.28624 8.57061 8.53765 8.32548 8.71531 8.02925L9.85865 8.71459C9.48399 9.34033 8.91441 9.8259 8.23726 10.0968C7.56012 10.3677 6.81279 10.409 6.10991 10.2144C5.40703 10.0198 4.78741 9.59993 4.34607 9.01928C3.90474 8.43864 3.66606 7.72925 3.66665 6.99992C3.66665 5.15992 5.15998 3.66659 6.99998 3.66659Z" fill="black"/>
</svg>
